<svg width="830" height="200" viewBox="0 0 830 200" xmlns="http://www.w3.org/2000/svg" role="img" aria-label="GitHub trophies for armaghanahmadshad"><defs>
    <filter id="rankGlow" x="-100%" y="-100%" width="300%" height="300%">
      <feGaussianBlur stdDeviation="3" result="b"/>
      <feMerge><feMergeNode in="b"/><feMergeNode in="SourceGraphic"/></feMerge>
    </filter>
    <linearGradient id="shineGradT" x1="0%" y1="0%" x2="100%" y2="0%">
      <stop offset="0%" stop-color="#ffffff" stop-opacity="0"/>
      <stop offset="48%" stop-color="#ffffff" stop-opacity="0"/>
      <stop offset="52%" stop-color="#ffffff" stop-opacity="0.5"/>
      <stop offset="56%" stop-color="#ffffff" stop-opacity="0"/>
      <stop offset="100%" stop-color="#ffffff" stop-opacity="0"/>
    </linearGradient>
    </defs><rect x="0.5" y="0.5" width="829" height="199" rx="14" fill="#150a24" stroke="#5b2a86" stroke-width="1.2"/><g transform="translate(12.0,0) scale(0.4)" opacity="0" style="transform-box:fill-box;transform-origin:center"><animateTransform attributeName="transform" type="scale" additive="sum" from="0.4" to="1" begin="0.15s" dur="0.55s" fill="freeze" calcMode="spline" keySplines="0.2 0.9 0.3 1.1"/><animate attributeName="opacity" from="0" to="1" begin="0.15s" dur="0.4s" fill="freeze"/><g transform="translate(0,0)"><rect x="4" y="14" width="118.33333333333334" height="168" rx="12" fill="#1f1035" stroke="#5b2a86" stroke-width="1"/><g transform="translate(61.16666666666667,62)"><path d="M-18.700000000000003 -20.4 L18.700000000000003 -20.4 L13.600000000000001 1.7000000000000002 Q13.600000000000001 11.899999999999999 0 11.899999999999999 Q-13.600000000000001 11.899999999999999 -13.600000000000001 1.7000000000000002 Z" fill="#ff5fb8" opacity="0.95"/><path d="M-18.700000000000003 -17.0 Q-32.3 -17.0 -30.6 -3.4000000000000004 Q-28.9 5.1 -15.3 4.08" fill="none" stroke="#ff5fb8" stroke-width="3.06"/><path d="M18.700000000000003 -17.0 Q32.3 -17.0 30.6 -3.4000000000000004 Q28.9 5.1 15.3 4.08" fill="none" stroke="#ff5fb8" stroke-width="3.06"/><rect x="-4.08" y="11.899999999999999" width="8.16" height="7.48" fill="#ff5fb8"/><rect x="-10.88" y="18.700000000000003" width="21.76" height="4.760000000000001" rx="1.7000000000000002" fill="#ff5fb8"/></g><text x="61.16666666666667" y="118" font-size="19" font-family="'Segoe UI',sans-serif" font-weight="800" fill="#ff5fb8" text-anchor="middle" filter="url(#rankGlow)">S<animate attributeName="opacity" values="0.7;1;0.7" dur="2.2s" begin="0.75s" repeatCount="indefinite"/></text><text x="61.16666666666667" y="140" font-size="10.5" font-family="'Segoe UI',sans-serif" fill="#d8b4fe" text-anchor="middle">Commits</text><rect x="4" y="14" width="118.33333333333334" height="168" fill="url(#shineGradT)" clip-path="inset(0 round 12px)"><animateTransform attributeName="transform" type="translate" values="-134.33333333333334,0; 134.33333333333334,0" dur="2.4s" begin="1.15s" repeatCount="indefinite"/></rect></g></g><g transform="translate(146.3,0) scale(0.4)" opacity="0" style="transform-box:fill-box;transform-origin:center"><animateTransform attributeName="transform" type="scale" additive="sum" from="0.4" to="1" begin="0.29s" dur="0.55s" fill="freeze" calcMode="spline" keySplines="0.2 0.9 0.3 1.1"/><animate attributeName="opacity" from="0" to="1" begin="0.29s" dur="0.4s" fill="freeze"/><g transform="translate(0,0)"><rect x="4" y="14" width="118.33333333333334" height="168" rx="12" fill="#1f1035" stroke="#5b2a86" stroke-width="1"/><g transform="translate(61.16666666666667,62)"><path d="M-18.700000000000003 -20.4 L18.700000000000003 -20.4 L13.600000000000001 1.7000000000000002 Q13.600000000000001 11.899999999999999 0 11.899999999999999 Q-13.600000000000001 11.899999999999999 -13.600000000000001 1.7000000000000002 Z" fill="#a855f7" opacity="0.95"/><path d="M-18.700000000000003 -17.0 Q-32.3 -17.0 -30.6 -3.4000000000000004 Q-28.9 5.1 -15.3 4.08" fill="none" stroke="#a855f7" stroke-width="3.06"/><path d="M18.700000000000003 -17.0 Q32.3 -17.0 30.6 -3.4000000000000004 Q28.9 5.1 15.3 4.08" fill="none" stroke="#a855f7" stroke-width="3.06"/><rect x="-4.08" y="11.899999999999999" width="8.16" height="7.48" fill="#a855f7"/><rect x="-10.88" y="18.700000000000003" width="21.76" height="4.760000000000001" rx="1.7000000000000002" fill="#a855f7"/></g><text x="61.16666666666667" y="118" font-size="19" font-family="'Segoe UI',sans-serif" font-weight="800" fill="#a855f7" text-anchor="middle" filter="url(#rankGlow)">A+<animate attributeName="opacity" values="0.7;1;0.7" dur="2.2s" begin="0.89s" repeatCount="indefinite"/></text><text x="61.16666666666667" y="140" font-size="10.5" font-family="'Segoe UI',sans-serif" fill="#d8b4fe" text-anchor="middle">Stars</text><rect x="4" y="14" width="118.33333333333334" height="168" fill="url(#shineGradT)" clip-path="inset(0 round 12px)"><animateTransform attributeName="transform" type="translate" values="-134.33333333333334,0; 134.33333333333334,0" dur="2.4s" begin="1.29s" repeatCount="indefinite"/></rect></g></g><g transform="translate(280.7,0) scale(0.4)" opacity="0" style="transform-box:fill-box;transform-origin:center"><animateTransform attributeName="transform" type="scale" additive="sum" from="0.4" to="1" begin="0.43s" dur="0.55s" fill="freeze" calcMode="spline" keySplines="0.2 0.9 0.3 1.1"/><animate attributeName="opacity" from="0" to="1" begin="0.43s" dur="0.4s" fill="freeze"/><g transform="translate(0,0)"><rect x="4" y="14" width="118.33333333333334" height="168" rx="12" fill="#1f1035" stroke="#5b2a86" stroke-width="1"/><g transform="translate(61.16666666666667,62)"><path d="M-18.700000000000003 -20.4 L18.700000000000003 -20.4 L13.600000000000001 1.7000000000000002 Q13.600000000000001 11.899999999999999 0 11.899999999999999 Q-13.600000000000001 11.899999999999999 -13.600000000000001 1.7000000000000002 Z" fill="#ff8fd0" opacity="0.95"/><path d="M-18.700000000000003 -17.0 Q-32.3 -17.0 -30.6 -3.4000000000000004 Q-28.9 5.1 -15.3 4.08" fill="none" stroke="#ff8fd0" stroke-width="3.06"/><path d="M18.700000000000003 -17.0 Q32.3 -17.0 30.6 -3.4000000000000004 Q28.9 5.1 15.3 4.08" fill="none" stroke="#ff8fd0" stroke-width="3.06"/><rect x="-4.08" y="11.899999999999999" width="8.16" height="7.48" fill="#ff8fd0"/><rect x="-10.88" y="18.700000000000003" width="21.76" height="4.760000000000001" rx="1.7000000000000002" fill="#ff8fd0"/></g><text x="61.16666666666667" y="118" font-size="19" font-family="'Segoe UI',sans-serif" font-weight="800" fill="#ff8fd0" text-anchor="middle" filter="url(#rankGlow)">B+<animate attributeName="opacity" values="0.7;1;0.7" dur="2.2s" begin="1.03s" repeatCount="indefinite"/></text><text x="61.16666666666667" y="140" font-size="10.5" font-family="'Segoe UI',sans-serif" fill="#d8b4fe" text-anchor="middle">Repositories</text><rect x="4" y="14" width="118.33333333333334" height="168" fill="url(#shineGradT)" clip-path="inset(0 round 12px)"><animateTransform attributeName="transform" type="translate" values="-134.33333333333334,0; 134.33333333333334,0" dur="2.4s" begin="1.4300000000000002s" repeatCount="indefinite"/></rect></g></g><g transform="translate(415.0,0) scale(0.4)" opacity="0" style="transform-box:fill-box;transform-origin:center"><animateTransform attributeName="transform" type="scale" additive="sum" from="0.4" to="1" begin="0.57s" dur="0.55s" fill="freeze" calcMode="spline" keySplines="0.2 0.9 0.3 1.1"/><animate attributeName="opacity" from="0" to="1" begin="0.57s" dur="0.4s" fill="freeze"/><g transform="translate(0,0)"><rect x="4" y="14" width="118.33333333333334" height="168" rx="12" fill="#1f1035" stroke="#5b2a86" stroke-width="1"/><g transform="translate(61.16666666666667,62)"><path d="M-18.700000000000003 -20.4 L18.700000000000003 -20.4 L13.600000000000001 1.7000000000000002 Q13.600000000000001 11.899999999999999 0 11.899999999999999 Q-13.600000000000001 11.899999999999999 -13.600000000000001 1.7000000000000002 Z" fill="#c084fc" opacity="0.95"/><path d="M-18.700000000000003 -17.0 Q-32.3 -17.0 -30.6 -3.4000000000000004 Q-28.9 5.1 -15.3 4.08" fill="none" stroke="#c084fc" stroke-width="3.06"/><path d="M18.700000000000003 -17.0 Q32.3 -17.0 30.6 -3.4000000000000004 Q28.9 5.1 15.3 4.08" fill="none" stroke="#c084fc" stroke-width="3.06"/><rect x="-4.08" y="11.899999999999999" width="8.16" height="7.48" fill="#c084fc"/><rect x="-10.88" y="18.700000000000003" width="21.76" height="4.760000000000001" rx="1.7000000000000002" fill="#c084fc"/></g><text x="61.16666666666667" y="118" font-size="19" font-family="'Segoe UI',sans-serif" font-weight="800" fill="#c084fc" text-anchor="middle" filter="url(#rankGlow)">B<animate attributeName="opacity" values="0.7;1;0.7" dur="2.2s" begin="1.17s" repeatCount="indefinite"/></text><text x="61.16666666666667" y="140" font-size="10.5" font-family="'Segoe UI',sans-serif" fill="#d8b4fe" text-anchor="middle">Followers</text><rect x="4" y="14" width="118.33333333333334" height="168" fill="url(#shineGradT)" clip-path="inset(0 round 12px)"><animateTransform attributeName="transform" type="translate" values="-134.33333333333334,0; 134.33333333333334,0" dur="2.4s" begin="1.57s" repeatCount="indefinite"/></rect></g></g><g transform="translate(549.3,0) scale(0.4)" opacity="0" style="transform-box:fill-box;transform-origin:center"><animateTransform attributeName="transform" type="scale" additive="sum" from="0.4" to="1" begin="0.71s" dur="0.55s" fill="freeze" calcMode="spline" keySplines="0.2 0.9 0.3 1.1"/><animate attributeName="opacity" from="0" to="1" begin="0.71s" dur="0.4s" fill="freeze"/><g transform="translate(0,0)"><rect x="4" y="14" width="118.33333333333334" height="168" rx="12" fill="#1f1035" stroke="#5b2a86" stroke-width="1"/><g transform="translate(61.16666666666667,62)"><path d="M-18.700000000000003 -20.4 L18.700000000000003 -20.4 L13.600000000000001 1.7000000000000002 Q13.600000000000001 11.899999999999999 0 11.899999999999999 Q-13.600000000000001 11.899999999999999 -13.600000000000001 1.7000000000000002 Z" fill="#ff5fb8" opacity="0.95"/><path d="M-18.700000000000003 -17.0 Q-32.3 -17.0 -30.6 -3.4000000000000004 Q-28.9 5.1 -15.3 4.08" fill="none" stroke="#ff5fb8" stroke-width="3.06"/><path d="M18.700000000000003 -17.0 Q32.3 -17.0 30.6 -3.4000000000000004 Q28.9 5.1 15.3 4.08" fill="none" stroke="#ff5fb8" stroke-width="3.06"/><rect x="-4.08" y="11.899999999999999" width="8.16" height="7.48" fill="#ff5fb8"/><rect x="-10.88" y="18.700000000000003" width="21.76" height="4.760000000000001" rx="1.7000000000000002" fill="#ff5fb8"/></g><text x="61.16666666666667" y="118" font-size="19" font-family="'Segoe UI',sans-serif" font-weight="800" fill="#ff5fb8" text-anchor="middle" filter="url(#rankGlow)">A<animate attributeName="opacity" values="0.7;1;0.7" dur="2.2s" begin="1.31s" repeatCount="indefinite"/></text><text x="61.16666666666667" y="140" font-size="10.5" font-family="'Segoe UI',sans-serif" fill="#d8b4fe" text-anchor="middle">PRs Merged</text><rect x="4" y="14" width="118.33333333333334" height="168" fill="url(#shineGradT)" clip-path="inset(0 round 12px)"><animateTransform attributeName="transform" type="translate" values="-134.33333333333334,0; 134.33333333333334,0" dur="2.4s" begin="1.71s" repeatCount="indefinite"/></rect></g></g><g transform="translate(683.7,0) scale(0.4)" opacity="0" style="transform-box:fill-box;transform-origin:center"><animateTransform attributeName="transform" type="scale" additive="sum" from="0.4" to="1" begin="0.85s" dur="0.55s" fill="freeze" calcMode="spline" keySplines="0.2 0.9 0.3 1.1"/><animate attributeName="opacity" from="0" to="1" begin="0.85s" dur="0.4s" fill="freeze"/><g transform="translate(0,0)"><rect x="4" y="14" width="118.33333333333334" height="168" rx="12" fill="#1f1035" stroke="#5b2a86" stroke-width="1"/><g transform="translate(61.16666666666667,62)"><path d="M-18.700000000000003 -20.4 L18.700000000000003 -20.4 L13.600000000000001 1.7000000000000002 Q13.600000000000001 11.899999999999999 0 11.899999999999999 Q-13.600000000000001 11.899999999999999 -13.600000000000001 1.7000000000000002 Z" fill="#a855f7" opacity="0.95"/><path d="M-18.700000000000003 -17.0 Q-32.3 -17.0 -30.6 -3.4000000000000004 Q-28.9 5.1 -15.3 4.08" fill="none" stroke="#a855f7" stroke-width="3.06"/><path d="M18.700000000000003 -17.0 Q32.3 -17.0 30.6 -3.4000000000000004 Q28.9 5.1 15.3 4.08" fill="none" stroke="#a855f7" stroke-width="3.06"/><rect x="-4.08" y="11.899999999999999" width="8.16" height="7.48" fill="#a855f7"/><rect x="-10.88" y="18.700000000000003" width="21.76" height="4.760000000000001" rx="1.7000000000000002" fill="#a855f7"/></g><text x="61.16666666666667" y="118" font-size="19" font-family="'Segoe UI',sans-serif" font-weight="800" fill="#a855f7" text-anchor="middle" filter="url(#rankGlow)">1yr+<animate attributeName="opacity" values="0.7;1;0.7" dur="2.2s" begin="1.4500000000000002s" repeatCount="indefinite"/></text><text x="61.16666666666667" y="140" font-size="10.5" font-family="'Segoe UI',sans-serif" fill="#d8b4fe" text-anchor="middle">Experience</text><rect x="4" y="14" width="118.33333333333334" height="168" fill="url(#shineGradT)" clip-path="inset(0 round 12px)"><animateTransform attributeName="transform" type="translate" values="-134.33333333333334,0; 134.33333333333334,0" dur="2.4s" begin="1.85s" repeatCount="indefinite"/></rect></g></g></svg>